<?xml version="1.0"?>
<svg xmlns="http://www.w3.org/2000/svg" viewBox="0 0 50 50">
    <path style="line-height:normal;text-indent:0;text-align:start;text-decoration-line:none;text-decoration-style:solid;text-decoration-color:#000;text-transform:none;block-progression:tb;isolation:auto;mix-blend-mode:normal" d="M 13 0 C 5.8324839 0 0 5.8324839 0 13 L 0 37 C 0 44.167516 5.8324839 50 13 50 L 37 50 C 44.167516 50 50 44.167516 50 37 L 50 13 C 50 5.8324839 44.167516 0 37 0 L 13 0 z M 13 2 L 37 2 C 43.086484 2 48 6.9135161 48 13 L 48 37 C 48 43.086484 43.086484 48 37 48 L 13 48 C 12.23919 48 11.496146 47.923585 10.779297 47.777344 C 10.420872 47.704223 10.069304 47.612801 9.7246094 47.505859 C 5.2435765 46.115619 2 41.945268 2 37 L 2 13 C 2 12.619595 2.019167 12.243375 2.0566406 11.873047 C 2.5437977 7.0587801 6.1197752 3.1732268 10.779297 2.2226562 C 11.137722 2.1495354 11.502719 2.0941142 11.873047 2.0566406 C 12.243375 2.019167 12.619595 2 13 2 z M 41.501953 7.0371094 C 41.501953 7.0371094 39.949351 7.0361572 38.070312 7.3671875 C 36.191276 7.6982178 33.923649 8.3152415 32.388672 9.8496094 C 31.489339 10.749799 30.896751 11.712518 30.521484 12.654297 C 30.541991 10.546025 30.310547 9.0527344 30.310547 9.0527344 L 30.169922 8.1171875 L 29.228516 8.2050781 C 27.758626 8.3407416 26.12099 9.0252291 24.648438 10.146484 C 23.17653 11.267248 21.874803 12.851369 21.314453 14.839844 C 21.084791 15.653581 21.091829 16.36391 21.064453 17.087891 C 20.744544 16.379517 20.386361 15.711549 19.960938 15.146484 L 19.419922 14.427734 L 18.648438 14.888672 C 16.074381 16.42591 13.96814 19.045253 13.271484 22.921875 C 13.150461 23.601677 13.277379 24.130737 13.292969 24.732422 C 12.963123 23.946802 12.673348 22.974218 12.324219 22.447266 L 11.785156 21.632812 L 10.958984 22.152344 C 8.425226 23.744525 6.3679829 26.408172 5.7617188 30.300781 C 5.3475414 32.949423 6.0659402 35.001842 7.0273438 36.357422 C 7.5080455 37.035212 8.043119 37.545746 8.5273438 37.910156 C 9.0115683 38.274566 9.3749256 38.491809 9.8398438 38.605469 L 9.84375 38.607422 L 9.8476562 38.607422 C 10.147208 38.678521 10.518141 38.685082 10.914062 38.632812 C 10.861728 39.028706 10.868853 39.400136 10.939453 39.699219 L 10.941406 39.703125 L 10.941406 39.707031 C 11.055066 40.171949 11.274262 40.53726 11.638672 41.021484 C 12.003082 41.505709 12.513616 42.03883 13.191406 42.519531 C 14.546987 43.480935 16.597452 44.199333 19.246094 43.785156 C 23.139752 43.179285 25.80485 41.122513 27.396484 38.587891 L 27.914062 37.761719 L 27.101562 37.222656 C 26.575108 36.873857 25.603026 36.585456 24.818359 36.255859 C 25.418932 36.271149 25.946647 36.398115 26.625 36.277344 L 26.625 36.275391 C 30.501622 35.578735 33.120965 33.472493 34.658203 30.898438 L 35.119141 30.126953 L 34.402344 29.587891 C 33.85557 29.1763 33.203342 28.83261 32.521484 28.519531 C 33.209021 28.501181 33.871603 28.534851 34.642578 28.337891 C 36.645436 27.827403 38.260472 26.565278 39.417969 25.121094 C 40.575465 23.67691 41.300651 22.056125 41.472656 20.589844 L 39.576172 20.478516 L 39.537109 20.423828 C 39.640584 20.335678 40.638153 19.486227 40.626953 19.484375 C 40.615173 19.482475 40.598802 19.478209 40.576172 19.474609 C 40.530912 19.467409 40.464777 19.457472 40.380859 19.445312 C 40.213023 19.421003 39.971152 19.388949 39.667969 19.355469 C 39.061603 19.288509 38.208835 19.217238 37.205078 19.197266 C 36.934932 19.19189 36.63008 19.202067 36.339844 19.205078 C 37.454798 18.858978 38.622237 18.224156 39.691406 17.154297 C 41.226125 15.619578 41.840857 13.350592 42.171875 11.470703 C 42.502893 9.5908143 42.501953 8.0371094 42.501953 8.0371094 L 42.501953 7.0371094 L 41.501953 7.0371094 z M 40.394531 9.1445312 C 40.369581 9.6949923 40.394559 10.037826 40.203125 11.125 C 39.904643 12.820111 39.260625 14.756954 38.277344 15.740234 C 36.912853 17.105605 35.468419 17.507843 34.28125 17.550781 C 33.687666 17.572251 33.160987 17.494251 32.783203 17.394531 C 32.58871 17.343193 32.421685 17.256976 32.328125 17.208984 C 32.279525 17.114584 32.194783 16.950245 32.142578 16.759766 C 32.040029 16.385601 31.959888 15.864439 31.978516 15.275391 C 32.015776 14.097295 32.411913 12.655819 33.802734 11.263672 C 34.786757 10.28004 36.723756 9.6363603 38.417969 9.3378906 C 39.503841 9.1465924 39.844275 9.1695244 40.394531 9.1445312 z M 28.394531 10.474609 C 28.531405 11.854552 28.790816 15.388321 27.494141 18.855469 C 26.883894 20.316197 26.124719 20.960822 25.507812 21.265625 C 25.050977 21.491341 24.589773 21.483636 24.4375 21.486328 C 24.370135 21.432528 24.228449 21.325056 24.099609 21.164062 C 23.871434 20.878937 23.604694 20.449962 23.386719 19.908203 C 22.950768 18.824685 22.697099 17.300325 23.238281 15.382812 C 23.652336 13.911516 24.659677 12.651776 25.859375 11.738281 C 26.696953 11.100518 27.581548 10.721712 28.394531 10.474609 z M 30.113281 16.777344 C 30.146208 16.949607 30.170995 17.136204 30.212891 17.289062 C 30.368341 17.856243 30.46161 18.225537 30.888672 18.654297 L 30.890625 18.65625 C 31.331412 19.097037 31.703658 19.179675 32.273438 19.330078 C 32.509235 19.392321 32.782518 19.43573 33.0625 19.474609 C 32.085678 19.626077 31.09094 19.833806 30.111328 20.173828 L 30.095703 20.179688 L 30.080078 20.185547 C 29.563527 20.384753 29.111587 20.615537 28.707031 20.863281 C 28.940312 20.490042 29.157493 20.071987 29.351562 19.603516 L 29.357422 19.587891 L 29.363281 19.572266 C 29.70954 18.64965 29.936383 17.708083 30.113281 16.777344 z M 18.798828 17.40625 C 19.880525 19.42337 20.614707 22.435761 20.158203 25.212891 L 20.158203 25.214844 C 19.913838 26.702647 19.264194 27.825402 18.626953 28.533203 C 18.308333 28.887104 17.990092 29.133396 17.767578 29.259766 C 17.679833 29.309597 17.629718 29.316011 17.591797 29.324219 C 17.487969 29.271412 17.32042 29.181526 17.111328 29.017578 C 16.786793 28.763111 16.403298 28.384174 16.064453 27.884766 C 15.386763 26.885948 14.856493 25.42895 15.240234 23.273438 C 15.749356 20.442826 17.123036 18.697034 18.798828 17.40625 z M 37.166016 21.197266 C 37.993605 21.213736 38.654221 21.272996 39.195312 21.328125 C 38.930926 22.144387 38.526994 23.035683 37.857422 23.871094 C 36.914418 25.04766 35.629579 26.022878 34.148438 26.400391 C 32.218407 26.893461 30.701574 26.603363 29.628906 26.140625 C 29.092573 25.909256 28.670134 25.629663 28.390625 25.394531 C 28.233757 25.262569 28.130205 25.121704 28.078125 25.054688 C 28.084621 24.903281 28.086175 24.437465 28.324219 23.984375 C 28.644616 23.374542 29.30763 22.63313 30.787109 22.058594 C 32.909456 21.325872 35.30927 21.16032 37.166016 21.197266 z M 22.222656 21.861328 C 22.333101 22.029229 22.42689 22.273893 22.539062 22.414062 C 22.896231 22.860375 23.142132 23.168938 23.705078 23.378906 L 23.707031 23.378906 C 24.466204 23.660313 25.324168 23.587444 26.394531 23.058594 C 26.48266 23.015051 26.571561 22.943706 26.660156 22.892578 C 26.628829 22.946792 26.581148 23.000607 26.552734 23.054688 C 25.997444 24.111605 25.903117 24.968213 26.166016 25.734375 L 26.166016 25.736328 C 26.362283 26.304426 26.664229 26.557882 27.101562 26.925781 C 27.272407 27.069501 27.565504 27.194611 27.779297 27.335938 C 26.52837 27.22692 25.259539 27.210576 24.009766 27.416016 C 22.880695 27.601515 21.923976 27.98216 21.109375 28.439453 C 21.566107 27.625267 21.945222 26.667801 22.130859 25.539062 C 22.331096 24.320929 22.321574 23.082214 22.222656 21.861328 z M 11.125 24.703125 C 11.999747 26.536845 13.004868 29.651833 12.865234 32.490234 C 12.683077 34.810141 12.016678 35.824534 11.476562 36.273438 C 10.936716 36.722119 10.35271 36.669085 10.3125 36.660156 C 10.38584 36.677436 10.055311 36.556481 9.7285156 36.310547 C 9.3991466 36.062676 9.0093296 35.691554 8.6601562 35.199219 C 7.9618098 34.214549 7.4004585 32.771687 7.7382812 30.611328 L 7.7382812 30.609375 C 8.1765162 27.793084 9.4995262 26.02936 11.125 24.703125 z M 26.441406 29.257812 C 28.554836 29.322019 30.628089 29.937227 32.140625 30.748047 C 30.84953 32.424408 29.103405 33.799678 26.271484 34.308594 L 26.273438 34.306641 C 24.117942 34.690417 22.662928 34.16025 21.664062 33.482422 C 21.16463 33.143508 20.7838 32.76009 20.529297 32.435547 C 20.365328 32.226453 20.275459 32.060287 20.222656 31.957031 C 20.23086 31.919024 20.237182 31.869061 20.287109 31.78125 C 20.413675 31.558566 20.661663 31.240603 21.015625 30.921875 C 21.723549 30.284419 22.846822 29.634957 24.333984 29.390625 C 25.028169 29.276515 25.73693 29.23641 26.441406 29.257812 z M 14.669922 29.285156 C 15.068108 29.803603 15.483719 30.28151 15.876953 30.589844 C 16.354574 30.964345 16.71832 31.191863 17.181641 31.314453 L 17.183594 31.314453 L 17.183594 31.316406 C 17.650202 31.438236 18.006739 31.357998 18.335938 31.212891 C 18.190484 31.541334 18.109077 31.896623 18.230469 32.363281 L 18.232422 32.365234 L 18.232422 32.367188 C 18.355108 32.830269 18.582566 33.192403 18.957031 33.669922 C 19.264649 34.062197 19.741034 34.479507 20.257812 34.876953 C 19.166714 34.717628 18.052352 34.627909 16.945312 34.683594 L 16.931641 34.683594 L 16.919922 34.685547 C 15.945197 34.76078 15.114378 34.921785 14.404297 35.144531 C 14.627106 34.434707 14.788225 33.603854 14.863281 32.628906 L 14.863281 32.615234 L 14.865234 32.601562 C 14.921024 31.492795 14.829844 30.378042 14.669922 29.285156 z M 18.130859 36.681641 C 20.654105 36.792156 23.238936 37.658265 24.84375 38.423828 C 23.518002 40.048739 21.753458 41.372371 18.9375 41.810547 C 16.777141 42.14837 15.332326 41.587018 14.347656 40.888672 C 13.855321 40.539499 13.484199 40.147728 13.236328 39.818359 C 12.990036 39.491089 12.869005 39.161696 12.886719 39.236328 C 12.877519 39.195128 12.826569 38.610346 13.275391 38.070312 C 13.724206 37.530288 14.736664 36.866218 17.056641 36.683594 C 17.411572 36.666073 17.770396 36.665853 18.130859 36.681641 z" font-weight="400" font-family="sans-serif" white-space="normal" overflow="visible"/>
</svg>
