<?xml version="1.0" ?><svg height="256" viewBox="0 0 256 256" width="256" xmlns="http://www.w3.org/2000/svg"><title/><g id="fat-control-food"><g><polygon points="127.5 114.471 124.74 120.001 130.27 120.001 127.5 114.471"/><path d="M240,170a2.006,2.006,0,0,0-2-2H172.28c13.88-11.74,21.72-28.21,21.72-45.979C194,72.572,142.11,23.013,126.2,9a3.954,3.954,0,0,0-3.95-.78,4.049,4.049,0,0,0-2.63,3.09c-.8,4.51-2.4,11.64-3.23,14.39A112.264,112.264,0,0,1,95.6,64.442a88.987,88.987,0,0,1-9.52,9.41,107.5,107.5,0,0,0-8.78,8.48A61.667,61.667,0,0,0,64.93,103.7,58.536,58.536,0,0,0,62,122.021c0,17.77,7.84,34.24,21.72,45.979H18a2.006,2.006,0,0,0-2,2,18.021,18.021,0,0,0,18,18h2.17A25.969,25.969,0,0,0,24,210v4a26.025,26.025,0,0,0,26,26H206a26.025,26.025,0,0,0,26-26v-4a25.969,25.969,0,0,0-12.17-22H222A18.021,18.021,0,0,0,240,170ZM87.03,90.962a48.43,48.43,0,0,0-9.75,16.81A45.456,45.456,0,0,0,75,122.021a2,2,0,0,1-4,0,49.254,49.254,0,0,1,2.48-15.5A52.484,52.484,0,0,1,84.04,88.3a97.46,97.46,0,0,1,8.04-7.74,96.427,96.427,0,0,0,10.45-10.38,2,2,0,1,1,3.08,2.56,99.572,99.572,0,0,1-10.87,10.8A94.771,94.771,0,0,0,87.03,90.962Zm38.74,18.05a1.946,1.946,0,0,1,.74-.74,1.244,1.244,0,0,1,.2-.1,1.345,1.345,0,0,1,.26-.09,1.228,1.228,0,0,1,.26-.06,2.274,2.274,0,0,1,.26-.02h.02a2.274,2.274,0,0,1,.26.02,1.228,1.228,0,0,1,.26.06,1.345,1.345,0,0,1,.26.09,1.244,1.244,0,0,1,.2.1,1.946,1.946,0,0,1,.74.74c.02.03.04.07.06.1l8,16a2,2,0,1,1-3.58,1.78l-1.51-3.02a1.816,1.816,0,0,1-.7.13h-8a1.816,1.816,0,0,1-.7-.13l-1.51,3.02a2,2,0,1,1-3.58-1.78l8-16C125.73,109.082,125.75,109.042,125.77,109.012Zm42.59,49.679a2,2,0,0,1-1.42-3.42A46.732,46.732,0,0,0,181,122.021a70.328,70.328,0,0,0-3.08-19.83,2,2,0,1,1,3.83-1.14,74,74,0,0,1,3.25,20.97,50.7,50.7,0,0,1-15.23,36.08A1.993,1.993,0,0,1,168.36,158.691ZM138.5,108h10a2,2,0,1,1,0,4h-3v14a2,2,0,0,1-4,0V112h-3a2,2,0,1,1,0-4Zm-21,4h-8v4h6a2,2,0,1,1,0,4h-6v6a2,2,0,0,1-4,0V110a2.006,2.006,0,0,1,2-2h10a2,2,0,1,1,0,4ZM106,66a2,2,0,1,1,2,2A2.006,2.006,0,0,1,106,66ZM76,220V198H180v22H76Zm130-36H34a14.026,14.026,0,0,1-13.86-12H235.86A14.026,14.026,0,0,1,222,184Z"/><path d="M174,200H164a2.006,2.006,0,0,0-2,2v14a2.006,2.006,0,0,0,2,2h10a2.006,2.006,0,0,0,2-2V202A2.006,2.006,0,0,0,174,200Zm-2,14h-6V204h6Z"/><circle cx="158" cy="216" r="2"/><path d="M152,200H142a2.006,2.006,0,0,0-2,2v14a2.006,2.006,0,0,0,2,2h10a2.006,2.006,0,0,0,2-2V202A2.006,2.006,0,0,0,152,200Zm-2,14h-6V204h6Z"/><path d="M136,200H126a2.006,2.006,0,0,0-2,2v14a2.006,2.006,0,0,0,2,2h10a2.006,2.006,0,0,0,2-2V202A2.006,2.006,0,0,0,136,200Zm-2,14h-6V204h6Z"/></g></g></svg>