<?xml version="1.0"?>
<svg xmlns="http://www.w3.org/2000/svg" viewBox="0 0 50 50">
    <path style="text-indent:0;text-align:start;line-height:normal;text-transform:none;block-progression:tb;-inkscape-font-specification:Sans" d="M 2.78125 2.78125 L 3 4.15625 C 3 4.15625 3.2623441 5.7196039 3.78125 7.53125 C 4.3001559 9.3428961 4.9915452 11.429045 6.28125 12.71875 C 7.5709548 14.008455 9.504005 14.452249 11.09375 14.71875 C 12.241415 14.911142 13.060908 14.949597 13.53125 14.96875 L 17.28125 18.71875 C 13.830641 19.822093 11.124211 21.32163 9.0625 22.84375 C 5.07218 25.789723 3.4375 28.84375 3.4375 28.84375 C 2.9661891 29.476607 2.9425469 30.299469 3.09375 31.0625 C 3.2633376 31.918306 3.6558403 32.836352 4.21875 33.84375 C 5.3445694 35.858545 7.1568488 38.219349 9.46875 40.53125 C 11.780651 42.843151 14.141455 44.65543 16.15625 45.78125 C 17.163648 46.344159 18.081694 46.736662 18.9375 46.90625 C 19.700531 47.057453 20.523393 47.033811 21.15625 46.5625 C 21.15625 46.5625 24.210277 44.92782 27.15625 40.9375 C 28.67837 38.875789 30.177907 36.169359 31.28125 32.71875 L 45.28125 46.71875 A 1.016466 1.016466 0 1 0 46.71875 45.28125 L 31.9375 30.5 C 32.594818 27.817023 32.981007 24.748205 33 21.25 L 40.90625 13.3125 C 41.525465 13.710648 42.210317 14 43 14 C 45.197334 14 47 12.197334 47 10 C 47 8.098461 45.631256 6.5541698 43.84375 6.15625 C 43.44583 4.368744 41.901539 3 40 3 C 37.802666 3 36 4.8026661 36 7 C 36 7.7896829 36.289352 8.4745346 36.6875 9.09375 L 28.75 17 C 25.251795 17.018993 22.182977 17.405182 19.5 18.0625 L 14.96875 13.53125 C 14.957749 13.060438 14.939597 12.239966 14.75 11.09375 C 14.487365 9.5060117 14.01975 7.5822498 12.71875 6.28125 C 11.41775 4.9802502 9.3402192 4.2964349 7.53125 3.78125 C 5.7222808 3.2660651 4.15625 3 4.15625 3 L 2.78125 2.78125 z M 40 5 C 41.116666 5 42 5.8833339 42 7 L 42 8 L 43 8 C 44.116666 8 45 8.8833339 45 10 C 45 11.116666 44.116666 12 43 12 C 42.416991 12 41.902301 11.746625 41.53125 11.34375 L 40.84375 10.59375 L 40.09375 11.3125 L 32.34375 19.09375 C 32.177402 18.820465 31.976968 18.539468 31.71875 18.28125 C 31.460532 18.023032 31.179535 17.822598 30.90625 17.65625 L 38.6875 9.90625 L 39.40625 9.15625 L 38.65625 8.46875 C 38.253375 8.0976985 38 7.5830092 38 7 C 38 5.8833339 38.883334 5 40 5 z M 5.34375 5.34375 C 5.9208767 5.4630488 6.0916066 5.4689442 6.96875 5.71875 C 7.6448162 5.9112901 8.343555 6.1676412 9 6.4375 L 9 9 L 6.4375 9 C 6.1651963 8.3411609 5.9130054 7.6469501 5.71875 6.96875 C 5.4667187 6.0888381 5.4656427 5.9239792 5.34375 5.34375 z M 11 7.46875 C 11.108075 7.5505404 11.201033 7.6385331 11.28125 7.71875 C 11.577522 8.0150225 11.833821 8.4855225 12.0625 9 L 11 9 L 11 7.46875 z M 7.46875 11 L 9 11 L 9 12.0625 C 8.4699932 11.836107 8.012952 11.575452 7.71875 11.28125 C 7.6408496 11.20335 7.5490845 11.106598 7.46875 11 z M 11 11 L 12.6875 11 C 12.71559 11.1372 12.758881 11.271023 12.78125 11.40625 C 12.915907 12.220309 12.88315 12.431837 12.90625 12.90625 C 12.428359 12.88064 12.224451 12.88716 11.40625 12.75 C 11.270447 12.727234 11.137897 12.684402 11 12.65625 L 11 11 z M 28.84375 19 C 28.84375 19 28.87445 18.999886 28.875 19 C 28.90583 19.0065 29.759281 19.196781 30.28125 19.71875 C 30.803219 20.240719 30.993547 21.094175 31 21.125 C 31.000114 21.125546 31 21.15625 31 21.15625 C 30.9663 30.198329 28.229983 36.094568 25.53125 39.75 C 24.173486 41.58909 22.832434 42.85821 21.84375 43.65625 C 21.649954 42.87539 21.284064 42.056099 20.78125 41.15625 C 19.65543 39.141455 17.843151 36.780651 15.53125 34.46875 C 13.219349 32.156849 10.858545 30.34457 8.84375 29.21875 C 7.943902 28.715936 7.1246102 28.350046 6.34375 28.15625 C 7.14179 27.167566 8.41091 25.826514 10.25 24.46875 C 12.336373 22.928422 15.160389 21.367817 18.875 20.3125 L 22.28125 23.71875 A 1.016466 1.016466 0 1 0 23.71875 22.28125 L 21.1875 19.75 C 23.441598 19.287791 25.992371 19.010628 28.84375 19 z M 5.15625 30 C 5.2530191 29.990263 5.4247749 30.010435 5.6875 30.0625 C 6.2129504 30.166623 6.9839656 30.470862 7.875 30.96875 C 9.6570682 31.964527 11.92127 33.671269 14.125 35.875 C 16.328731 38.07873 18.035473 40.342932 19.03125 42.125 C 19.529138 43.016035 19.833377 43.78705 19.9375 44.3125 C 20.041624 44.83795 19.95075 44.986722 19.96875 44.96875 C 19.98672 44.95078 19.83795 45.04163 19.3125 44.9375 C 18.78705 44.833377 18.016035 44.529138 17.125 44.03125 C 15.342929 43.035473 13.07873 41.328731 10.875 39.125 C 8.6712688 36.92127 6.9645267 34.657068 5.96875 32.875 C 5.4708612 31.983965 5.1666236 31.21295 5.0625 30.6875 C 4.9583764 30.16205 5.0492218 30.013278 5.03125 30.03125 C 5.022264 30.040235 5.0594809 30.009737 5.15625 30 z M 10.21875 35 C 10.152879 35.00069 10.097794 35.027206 10.0625 35.0625 C 9.7801508 35.344849 10.648786 36.648786 12 38 C 13.351214 39.351214 14.655151 40.219849 14.9375 39.9375 C 15.219849 39.655151 14.351214 38.351214 13 37 C 11.817688 35.817688 10.679848 34.995173 10.21875 35 z"/>
</svg>
